HIERARCHY
ROOT Hips
{
 OFFSET 0.000000 0.000000 0.000000
 CHANNELS 6 Xposition Yposition Zposition Yrotation Xrotation Zrotation
 JOINT Chest
 {
  OFFSET 0.000000 11.395451 -0.039534
  CHANNELS 3 Yrotation Xrotation Zrotation
  JOINT Chest2
  {
   OFFSET 0.000000 9.398669 0.071813
   CHANNELS 3 Yrotation Xrotation Zrotation
   JOINT Chest3
   {
    OFFSET 0.000000 8.489801 0.000000
    CHANNELS 3 Yrotation Xrotation Zrotation
    JOINT Chest4
    {
     OFFSET 0.000000 8.489801 0.000000
     CHANNELS 3 Yrotation Xrotation Zrotation
     JOINT Neck
     {
      OFFSET 0.000000 12.404889 0.000000
      CHANNELS 3 Yrotation Xrotation Zrotation
      JOINT Head
      {
       OFFSET 0.000000 8.903270 0.092239
       CHANNELS 3 Yrotation Xrotation Zrotation
       End Site
       {
        OFFSET 0.000000 17.592497 0.007158
       }
      }
     }
     JOINT RightCollar
     {
      OFFSET -3.196775 6.966722 0.000000
      CHANNELS 3 Yrotation Xrotation Zrotation
      JOINT RightShoulder
      {
       OFFSET -15.955896 0.000000 0.000000
       CHANNELS 3 Yrotation Xrotation Zrotation
       JOINT RightElbow
       {
        OFFSET -24.792472 0.000000 0.000000
        CHANNELS 3 Yrotation Xrotation Zrotation
        JOINT RightWrist
        {
         OFFSET -20.900115 0.000000 0.025002
         CHANNELS 3 Yrotation Xrotation Zrotation
         End Site
         {
          OFFSET -16.056692 0.000000 0.000000
         }
        }
       }
      }
     }
     JOINT LeftCollar
     {
      OFFSET 3.196775 6.966722 0.000000
      CHANNELS 3 Yrotation Xrotation Zrotation
      JOINT LeftShoulder
      {
       OFFSET 15.955896 0.000000 0.000000
       CHANNELS 3 Yrotation Xrotation Zrotation
       JOINT LeftElbow
       {
        OFFSET 24.792472 0.000000 0.000000
        CHANNELS 3 Yrotation Xrotation Zrotation
        JOINT LeftWrist
        {
         OFFSET 20.900115 0.000000 0.025002
         CHANNELS 3 Yrotation Xrotation Zrotation
         End Site
         {
          OFFSET 16.056692 0.000000 0.000000
         }
        }
       }
      }
     }
    }
   }
  }
 }
 JOINT RightHip
 {
  OFFSET -9.568995 0.193718 0.019767
  CHANNELS 3 Yrotation Xrotation Zrotation
  JOINT RightKnee
  {
   OFFSET 0.000000 -56.649296 0.015402
   CHANNELS 3 Yrotation Xrotation Zrotation
   JOINT RightAnkle
   {
    OFFSET 0.000000 -41.365147 0.021264
    CHANNELS 3 Yrotation Xrotation Zrotation
    JOINT RightToe
    {
     OFFSET 0.000000 -7.465940 17.672538
     CHANNELS 3 Yrotation Xrotation Zrotation
     End Site
     {
      OFFSET 0.000000 -1.736315 7.837145
     }
    }
   }
  }
 }
 JOINT LeftHip
 {
  OFFSET 9.568995 0.193718 0.019767
  CHANNELS 3 Yrotation Xrotation Zrotation
  JOINT LeftKnee
  {
   OFFSET 0.000000 -56.649296 0.015402
   CHANNELS 3 Yrotation Xrotation Zrotation
   JOINT LeftAnkle
   {
    OFFSET 0.000000 -41.365147 0.021264
    CHANNELS 3 Yrotation Xrotation Zrotation
    JOINT LeftToe
    {
     OFFSET 0.000000 -7.465940 17.672538
     CHANNELS 3 Yrotation Xrotation Zrotation
     End Site
     {
      OFFSET 0.000000 -1.736315 7.837145
     }
    }
   }
  }
 }
}
MOTION
Frames: 8
Frame Time: 0.016667
-20.863631 105.655895 445.833542 92.813311 -2.840158 -3.641459 0.930877 6.083326 0.908193 0.401208 2.705473 0.390835 0.401212 2.705453 0.390835 0.299125 2.029336 0.291295 3.226406 15.336371 -1.431355 6.563831 -7.551300 -3.877651 -0.234975 0.612441 7.161203 16.577596 -16.979246 41.886320 35.800178 -38.019740 29.851702 -12.630749 -21.209300 7.611595 1.114097 2.350962 -4.493056 -1.098102 -17.335673 -51.526814 -18.522699 -54.852319 -56.941600 16.168546 -18.354102 6.355842 -3.282048 -20.004112 1.324832 1.237344 21.931798 -2.569366 5.847153 -4.252731 8.301526 0.000000 0.000000 -0.000000 1.951044 3.550179 -4.294381 2.362224 13.428492 -0.475887 7.407097 -14.785209 4.733903 0.002226 -0.226882 1.225177
-19.354075 105.496380 445.711092 93.785557 -2.757392 -3.526305 0.740789 6.117224 1.003662 0.315508 2.720358 0.435639 0.315508 2.720358 0.435639 0.234647 2.040495 0.325263 3.101198 15.189862 -1.497799 6.363296 -7.826366 -3.964857 -0.180923 0.688256 7.035698 16.046435 -16.598870 41.696297 35.978015 -38.163599 30.125347 -12.415154 -21.219973 7.554359 1.140069 2.473859 -4.573803 -1.547929 -17.417746 -51.414530 -18.495300 -54.760176 -57.174443 16.088571 -18.366247 6.549918 -2.769524 -19.079091 0.907719 1.194161 15.551501 -1.994721 5.790316 -3.514869 9.781113 0.000000 0.000000 0.000000 0.782437 4.152304 -4.494039 2.843973 13.760058 -0.407997 7.259078 -15.528409 4.590219 0.000897 -0.467374 1.761056
-17.919756 105.275442 445.468235 94.587596 -2.700618 -3.339876 0.623244 6.180766 1.119882 0.261634 2.748540 0.488664 0.261626 2.748561 0.488660 0.193978 2.061644 0.365245 2.960282 15.029784 -1.604375 6.149193 -8.124936 -4.121765 -0.128800 0.723373 6.779134 15.621723 -16.279841 41.498428 36.095480 -38.370060 30.398625 -12.262681 -21.199616 7.501614 1.173351 2.543980 -4.736021 -1.928608 -17.543374 -51.359923 -18.385765 -54.681940 -57.454405 16.082202 -18.377973 6.751252 -2.089293 -18.753284 -0.232934 0.485799 10.346409 -0.583518 6.391229 -3.151425 11.479935 0.000000 0.000000 0.000000 0.031082 4.743548 -4.833086 3.010871 14.143849 -0.283900 7.174458 -16.295168 4.421405 -0.006385 -0.827086 1.931961
-16.505622 105.011961 445.176503 95.269028 -2.671741 -3.113962 0.556618 6.260594 1.242731 0.230203 2.783986 0.543950 0.230196 2.783997 0.543945 0.170128 2.088212 0.406826 2.816450 14.871715 -1.727071 5.935753 -8.418959 -4.307473 -0.075592 0.754715 6.468320 15.294298 -16.011626 41.306107 36.162199 -38.616808 30.662613 -12.147319 -21.158046 7.435126 1.204316 2.597309 -4.930426 -2.216074 -17.694615 -51.346944 -18.229578 -54.606056 -57.765845 16.125023 -18.386349 6.957432 -1.477119 -18.675924 -1.634503 -0.721492 5.987339 1.255690 7.296249 -3.033010 13.444907 0.000000 0.000000 0.000000 -0.479589 5.318106 -5.230642 3.040259 14.637532 -0.127851 7.114885 -17.100610 4.209224 -0.017796 -1.285451 1.927948
-14.985273 104.748285 445.014008 95.871119 -2.707337 -2.952766 0.511732 6.330409 1.349394 0.208645 2.814990 0.591797 0.208645 2.814990 0.591797 0.153725 2.111447 0.442797 2.702967 14.757638 -1.809780 5.761452 -8.632178 -4.426856 -0.045611 0.824379 6.281225 15.085723 -15.816615 41.176852 36.217505 -38.805086 30.870520 -12.060263 -21.103073 7.335148 1.225179 2.688523 -5.035374 -2.309554 -17.824190 -51.357578 -18.061443 -54.502555 -58.086810 16.162583 -18.381802 7.133740 -1.610888 -18.421863 -2.064882 -1.822738 2.691656 2.359970 8.022375 -3.254182 15.364001 0.000000 0.000000 0.000000 -0.956579 5.889558 -5.451789 3.129126 15.410921 -0.018348 7.066004 -17.977575 3.879344 -0.030687 -1.829898 1.949862
-13.276661 104.500591 445.101234 96.372200 -2.829966 -2.941746 0.495935 6.379210 1.436076 0.200301 2.836738 0.630419 0.200305 2.836744 0.630424 0.147272 2.127772 0.471794 2.638362 14.706439 -1.824221 5.648948 -8.730249 -4.432681 -0.045802 0.973539 6.326974 15.043197 -15.705262 41.130630 36.282408 -38.906570 30.969249 -12.007724 -21.041934 7.183900 1.228302 2.869668 -4.967710 -2.124757 -17.938351 -51.392149 -17.878643 -54.342576 -58.439819 16.175211 -18.355466 7.280604 -2.919118 -17.711747 -0.722294 -2.786849 0.471580 2.088929 8.250278 -4.107017 17.672376 0.000000 -0.000000 0.000000 -1.495214 6.498839 -5.346074 3.379416 16.518519 0.013737 7.062660 -19.033770 3.364587 -0.042949 -2.367206 2.063502
-11.461833 104.252702 445.317697 96.794091 -3.013980 -2.997133 0.501854 6.419169 1.506011 0.201826 2.854593 0.661312 0.201828 2.854602 0.661317 0.148249 2.141178 0.494945 2.603183 14.698897 -1.797959 5.573442 -8.748185 -4.370512 -0.067545 1.155968 6.497503 15.122701 -15.666895 41.144159 36.333857 -38.950889 31.012295 -11.984424 -20.968510 6.999589 1.222842 3.085190 -4.809473 -1.745582 -18.028266 -51.452267 -17.686603 -54.154055 -58.799468 16.182046 -18.315908 7.397538 -4.930626 -16.793387 1.545797 -3.406557 -0.765664 1.138674 8.397462 -5.204894 19.907458 -0.000000 -0.000000 -0.000000 -1.991828 7.106689 -5.067704 3.678381 17.908118 0.000460 7.072199 -20.159868 2.728562 -0.057691 -2.990912 2.202649
-9.660526 103.998425 445.480061 97.242646 -3.224023 -2.969593 0.478295 6.458946 1.546472 0.190671 2.872220 0.679529 0.190671 2.872220 0.679529 0.139778 2.154381 0.508643 2.573245 14.719794 -1.758586 5.501062 -8.713829 -4.283982 -0.111715 1.280967 6.644681 15.209831 -15.693471 41.209183 36.343853 -38.926565 31.112493 -11.964499 -20.869835 6.816536 1.225700 3.227607 -4.687065 -1.325027 -18.024552 -51.518742 -17.530565 -53.993432 -59.073857 16.187415 -18.280196 7.448297 -7.031761 -16.116994 3.547016 -2.697429 -0.899695 0.233313 9.240659 -5.800465 20.270177 0.000000 0.000000 0.000000 -2.355574 7.600743 -4.837582 3.900085 19.588324 -0.038677 6.967872 -21.065035 2.104097 -0.082141 -3.969026 2.370237
